<svg width="244" height="260" viewBox="0 0 244 260" fill="none" xmlns="http://www.w3.org/2000/svg">
<rect width="244" height="260" rx="10" fill="url(#paint0_linear_1_2)"/>
<path d="M211.75 130.375C211.727 106.678 202.304 83.9586 185.548 67.2025C168.791 50.4463 146.072 41.0228 122.375 41C98.6783 41.0228 75.9586 50.4463 59.2025 67.2025C42.4463 83.9586 33.0228 106.678 33 130.375C33.0228 154.072 42.4463 176.791 59.2025 193.548C75.9586 210.304 98.6783 219.727 122.375 219.75H122.461C146.143 219.705 168.84 210.271 185.578 193.517C202.316 176.764 211.727 154.057 211.75 130.375ZM54.6562 96.7734L98.6562 104.852L52.5078 159.164C48.4044 149.211 46.4733 138.496 46.8438 127.737C47.2143 116.977 49.8778 106.421 54.6562 96.7734ZM192.242 101.586C196.346 111.539 198.277 122.254 197.906 133.013C197.536 143.773 194.872 154.329 190.094 163.977L146.094 155.898L192.242 101.586ZM185.367 88.5234L156.406 122.641L132.344 55.4375C148.827 57.555 164.131 65.1164 175.828 76.9219C179.383 80.4649 182.578 84.351 185.367 88.5234ZM117.562 54.9219L132.602 97.0312L62.4766 84.2266C64.484 81.6708 66.636 79.2319 68.9219 76.9219C81.8804 63.8595 99.1961 56.0276 117.562 54.9219ZM59.3828 172.227L88.3438 138.109L112.406 205.312C95.9229 203.195 80.6187 195.634 68.9219 183.828C65.3672 180.285 62.1719 176.399 59.3828 172.227ZM127.188 205.828L112.148 163.719L131.914 167.328H132L182.273 176.523C180.266 179.079 178.114 181.518 175.828 183.828C162.87 196.891 145.554 204.722 127.188 205.828Z" fill="url(#paint1_linear_1_2)"/>
<defs>
<linearGradient id="paint0_linear_1_2" x1="122" y1="0" x2="122" y2="260" gradientUnits="userSpaceOnUse">
<stop stop-color="#636564"/>
<stop offset="1" stop-color="#1F2021"/>
</linearGradient>
<linearGradient id="paint1_linear_1_2" x1="122.375" y1="41" x2="122.375" y2="219.75" gradientUnits="userSpaceOnUse">
<stop stop-color="#2DC2A8"/>
<stop offset="1" stop-color="#772AD8"/>
</linearGradient>
</defs>
</svg>
