<svg width="269" height="324" viewBox="0 0 269 324" fill="none" xmlns="http://www.w3.org/2000/svg">
<rect width="269" height="324" rx="10" fill="#ECECEC"/>
<rect x="12" y="9" width="244" height="260" rx="10" fill="url(#paint0_linear_12_32)"/>
<path d="M223.75 139.375C223.727 115.678 214.304 92.9586 197.548 76.2025C180.791 59.4463 158.072 50.0228 134.375 50C110.678 50.0228 87.9586 59.4463 71.2025 76.2025C54.4463 92.9586 45.0228 115.678 45 139.375C45.0228 163.072 54.4463 185.791 71.2025 202.548C87.9586 219.304 110.678 228.727 134.375 228.75H134.461C158.143 228.705 180.84 219.271 197.578 202.517C214.316 185.764 223.727 163.057 223.75 139.375ZM66.6562 105.773L110.656 113.852L64.5078 168.164C60.4044 158.211 58.4733 147.496 58.8438 136.737C59.2143 125.977 61.8778 115.421 66.6562 105.773ZM204.242 110.586C208.346 120.539 210.277 131.254 209.906 142.013C209.536 152.773 206.872 163.329 202.094 172.977L158.094 164.898L204.242 110.586ZM197.367 97.5234L168.406 131.641L144.344 64.4375C160.827 66.555 176.131 74.1164 187.828 85.9219C191.383 89.4649 194.578 93.351 197.367 97.5234ZM129.562 63.9219L144.602 106.031L74.4766 93.2266C76.484 90.6708 78.636 88.2319 80.9219 85.9219C93.8804 72.8595 111.196 65.0276 129.562 63.9219ZM71.3828 181.227L100.344 147.109L124.406 214.312C107.923 212.195 92.6187 204.634 80.9219 192.828C77.3672 189.285 74.1719 185.399 71.3828 181.227ZM139.188 214.828L124.148 172.719L143.914 176.328H144L194.273 185.523C192.266 188.079 190.114 190.518 187.828 192.828C174.87 205.891 157.554 213.722 139.188 214.828Z" fill="url(#paint1_linear_12_32)"/>
<path d="M67.9478 286.344V306H63.1598V286.344H67.9478ZM91.3536 290.208C93.295 290.208 94.835 290.796 95.9736 291.972C97.131 293.148 97.7096 294.781 97.7096 296.872V306H92.9496V297.516C92.9496 296.508 92.679 295.733 92.1376 295.192C91.615 294.632 90.887 294.352 89.9536 294.352C89.0203 294.352 88.283 294.632 87.7416 295.192C87.219 295.733 86.9576 296.508 86.9576 297.516V306H82.1976V297.516C82.1976 296.508 81.927 295.733 81.3856 295.192C80.863 294.632 80.135 294.352 79.2016 294.352C78.2683 294.352 77.531 294.632 76.9896 295.192C76.467 295.733 76.2056 296.508 76.2056 297.516V306H71.4176V290.376H76.2056V292.336C76.691 291.683 77.3256 291.169 78.1096 290.796C78.8936 290.404 79.7803 290.208 80.7696 290.208C81.9456 290.208 82.991 290.46 83.9056 290.964C84.839 291.468 85.567 292.187 86.0896 293.12C86.631 292.261 87.3683 291.561 88.3016 291.02C89.235 290.479 90.2523 290.208 91.3536 290.208ZM108.17 306.224C106.64 306.224 105.258 305.897 104.026 305.244C102.813 304.591 101.852 303.657 101.142 302.444C100.452 301.231 100.106 299.812 100.106 298.188C100.106 296.583 100.461 295.173 101.17 293.96C101.88 292.728 102.85 291.785 104.082 291.132C105.314 290.479 106.696 290.152 108.226 290.152C109.757 290.152 111.138 290.479 112.37 291.132C113.602 291.785 114.573 292.728 115.282 293.96C115.992 295.173 116.346 296.583 116.346 298.188C116.346 299.793 115.982 301.212 115.254 302.444C114.545 303.657 113.565 304.591 112.314 305.244C111.082 305.897 109.701 306.224 108.17 306.224ZM108.17 302.08C109.085 302.08 109.86 301.744 110.494 301.072C111.148 300.4 111.474 299.439 111.474 298.188C111.474 296.937 111.157 295.976 110.522 295.304C109.906 294.632 109.141 294.296 108.226 294.296C107.293 294.296 106.518 294.632 105.902 295.304C105.286 295.957 104.978 296.919 104.978 298.188C104.978 299.439 105.277 300.4 105.874 301.072C106.49 301.744 107.256 302.08 108.17 302.08ZM123.674 292.588C124.122 291.86 124.766 291.272 125.606 290.824C126.446 290.376 127.408 290.152 128.49 290.152C129.778 290.152 130.945 290.479 131.99 291.132C133.036 291.785 133.857 292.719 134.454 293.932C135.07 295.145 135.378 296.555 135.378 298.16C135.378 299.765 135.07 301.184 134.454 302.416C133.857 303.629 133.036 304.572 131.99 305.244C130.945 305.897 129.778 306.224 128.49 306.224C127.389 306.224 126.428 306.009 125.606 305.58C124.785 305.132 124.141 304.544 123.674 303.816V306H118.886V285.28H123.674V292.588ZM130.506 298.16C130.506 296.965 130.17 296.032 129.498 295.36C128.845 294.669 128.033 294.324 127.062 294.324C126.11 294.324 125.298 294.669 124.626 295.36C123.973 296.051 123.646 296.993 123.646 298.188C123.646 299.383 123.973 300.325 124.626 301.016C125.298 301.707 126.11 302.052 127.062 302.052C128.014 302.052 128.826 301.707 129.498 301.016C130.17 300.307 130.506 299.355 130.506 298.16ZM149.79 295.92C150.929 296.163 151.844 296.732 152.534 297.628C153.225 298.505 153.57 299.513 153.57 300.652C153.57 302.295 152.992 303.601 151.834 304.572C150.696 305.524 149.1 306 147.046 306H137.89V286.344H146.738C148.736 286.344 150.294 286.801 151.414 287.716C152.553 288.631 153.122 289.872 153.122 291.44C153.122 292.597 152.814 293.559 152.198 294.324C151.601 295.089 150.798 295.621 149.79 295.92ZM142.678 294.296H145.814C146.598 294.296 147.196 294.128 147.606 293.792C148.036 293.437 148.25 292.924 148.25 292.252C148.25 291.58 148.036 291.067 147.606 290.712C147.196 290.357 146.598 290.18 145.814 290.18H142.678V294.296ZM146.206 302.136C147.009 302.136 147.625 301.959 148.054 301.604C148.502 301.231 148.726 300.699 148.726 300.008C148.726 299.317 148.493 298.776 148.026 298.384C147.578 297.992 146.953 297.796 146.15 297.796H142.678V302.136H146.206ZM163.459 306.224C161.929 306.224 160.547 305.897 159.315 305.244C158.102 304.591 157.141 303.657 156.431 302.444C155.741 301.231 155.395 299.812 155.395 298.188C155.395 296.583 155.75 295.173 156.459 293.96C157.169 292.728 158.139 291.785 159.371 291.132C160.603 290.479 161.985 290.152 163.515 290.152C165.046 290.152 166.427 290.479 167.659 291.132C168.891 291.785 169.862 292.728 170.571 293.96C171.281 295.173 171.635 296.583 171.635 298.188C171.635 299.793 171.271 301.212 170.543 302.444C169.834 303.657 168.854 304.591 167.603 305.244C166.371 305.897 164.99 306.224 163.459 306.224ZM163.459 302.08C164.374 302.08 165.149 301.744 165.783 301.072C166.437 300.4 166.763 299.439 166.763 298.188C166.763 296.937 166.446 295.976 165.811 295.304C165.195 294.632 164.43 294.296 163.515 294.296C162.582 294.296 161.807 294.632 161.191 295.304C160.575 295.957 160.267 296.919 160.267 298.188C160.267 299.439 160.566 300.4 161.163 301.072C161.779 301.744 162.545 302.08 163.459 302.08ZM181.287 306.224C179.757 306.224 178.375 305.897 177.143 305.244C175.93 304.591 174.969 303.657 174.259 302.444C173.569 301.231 173.223 299.812 173.223 298.188C173.223 296.583 173.578 295.173 174.287 293.96C174.997 292.728 175.967 291.785 177.199 291.132C178.431 290.479 179.813 290.152 181.343 290.152C182.874 290.152 184.255 290.479 185.487 291.132C186.719 291.785 187.69 292.728 188.399 293.96C189.109 295.173 189.463 296.583 189.463 298.188C189.463 299.793 189.099 301.212 188.371 302.444C187.662 303.657 186.682 304.591 185.431 305.244C184.199 305.897 182.818 306.224 181.287 306.224ZM181.287 302.08C182.202 302.08 182.977 301.744 183.611 301.072C184.265 300.4 184.591 299.439 184.591 298.188C184.591 296.937 184.274 295.976 183.639 295.304C183.023 294.632 182.258 294.296 181.343 294.296C180.41 294.296 179.635 294.632 179.019 295.304C178.403 295.957 178.095 296.919 178.095 298.188C178.095 299.439 178.394 300.4 178.991 301.072C179.607 301.744 180.373 302.08 181.287 302.08ZM201.552 306L196.792 299.448V306H192.004V285.28H196.792V296.732L201.524 290.376H207.432L200.936 298.216L207.488 306H201.552Z" fill="#494949"/>
<defs>
<linearGradient id="paint0_linear_12_32" x1="134" y1="9" x2="134" y2="269" gradientUnits="userSpaceOnUse">
<stop stop-color="#636564"/>
<stop offset="1" stop-color="#1F2021"/>
</linearGradient>
<linearGradient id="paint1_linear_12_32" x1="134.375" y1="50" x2="134.375" y2="228.75" gradientUnits="userSpaceOnUse">
<stop stop-color="#2DC2A8"/>
<stop offset="1" stop-color="#772AD8"/>
</linearGradient>
</defs>
</svg>
