<svg width="299" height="90" viewBox="0 0 299 90" fill="none" xmlns="http://www.w3.org/2000/svg">
<path d="M51.44 45.8C56.32 46.84 60.24 49.28 63.2 53.12C66.16 56.88 67.64 61.2 67.64 66.08C67.64 73.12 65.16 78.72 60.2 82.88C55.32 86.96 48.48 89 39.68 89H0.44V4.76H38.36C46.92 4.76 53.6 6.72 58.4 10.64C63.28 14.56 65.72 19.88 65.72 26.6C65.72 31.56 64.4 35.68 61.76 38.96C59.2 42.24 55.76 44.52 51.44 45.8ZM20.96 38.84H34.4C37.76 38.84 40.32 38.12 42.08 36.68C43.92 35.16 44.84 32.96 44.84 30.08C44.84 27.2 43.92 25 42.08 23.48C40.32 21.96 37.76 21.2 34.4 21.2H20.96V38.84ZM36.08 72.44C39.52 72.44 42.16 71.68 44 70.16C45.92 68.56 46.88 66.28 46.88 63.32C46.88 60.36 45.88 58.04 43.88 56.36C41.96 54.68 39.28 53.84 35.84 53.84H20.96V72.44H36.08ZM110.022 89.96C103.462 89.96 97.5416 88.56 92.2616 85.76C87.0616 82.96 82.9416 78.96 79.9016 73.76C76.9416 68.56 75.4616 62.48 75.4616 55.52C75.4616 48.64 76.9816 42.6 80.0216 37.4C83.0616 32.12 87.2216 28.08 92.5016 25.28C97.7816 22.48 103.702 21.08 110.262 21.08C116.822 21.08 122.742 22.48 128.022 25.28C133.302 28.08 137.462 32.12 140.502 37.4C143.542 42.6 145.062 48.64 145.062 55.52C145.062 62.4 143.502 68.48 140.382 73.76C137.342 78.96 133.142 82.96 127.782 85.76C122.502 88.56 116.582 89.96 110.022 89.96ZM110.022 72.2C113.942 72.2 117.262 70.76 119.982 67.88C122.782 65 124.182 60.88 124.182 55.52C124.182 50.16 122.822 46.04 120.102 43.16C117.462 40.28 114.182 38.84 110.262 38.84C106.262 38.84 102.942 40.28 100.302 43.16C97.6616 45.96 96.3416 50.08 96.3416 55.52C96.3416 60.88 97.6216 65 100.182 67.88C102.822 70.76 106.102 72.2 110.022 72.2ZM186.428 89.96C179.868 89.96 173.948 88.56 168.668 85.76C163.468 82.96 159.348 78.96 156.308 73.76C153.348 68.56 151.868 62.48 151.868 55.52C151.868 48.64 153.388 42.6 156.428 37.4C159.468 32.12 163.628 28.08 168.908 25.28C174.188 22.48 180.108 21.08 186.668 21.08C193.228 21.08 199.148 22.48 204.428 25.28C209.708 28.08 213.868 32.12 216.908 37.4C219.948 42.6 221.468 48.64 221.468 55.52C221.468 62.4 219.908 68.48 216.788 73.76C213.748 78.96 209.548 82.96 204.188 85.76C198.908 88.56 192.988 89.96 186.428 89.96ZM186.428 72.2C190.348 72.2 193.668 70.76 196.388 67.88C199.188 65 200.588 60.88 200.588 55.52C200.588 50.16 199.228 46.04 196.508 43.16C193.868 40.28 190.588 38.84 186.668 38.84C182.668 38.84 179.348 40.28 176.708 43.16C174.068 45.96 172.748 50.08 172.748 55.52C172.748 60.88 174.028 65 176.588 67.88C179.228 70.76 182.508 72.2 186.428 72.2ZM273.274 89L252.874 60.92V89H232.354V0.199999H252.874V49.28L273.154 22.04H298.474L270.634 55.64L298.714 89H273.274Z" fill="url(#paint0_linear_12_34)"/>
<defs>
<linearGradient id="paint0_linear_12_34" x1="146" y1="-108" x2="146.5" y2="103" gradientUnits="userSpaceOnUse">
<stop stop-color="#2DC2A8"/>
<stop offset="1" stop-color="#772AD8"/>
</linearGradient>
</defs>
</svg>
