<svg width="365" height="210" viewBox="0 0 365 210" fill="none" xmlns="http://www.w3.org/2000/svg">
<path d="M27.96 17.76V102H7.44V17.76H27.96ZM128.271 34.32C136.591 34.32 143.191 36.84 148.071 41.88C153.031 46.92 155.511 53.92 155.511 62.88V102H135.111V65.64C135.111 61.32 133.951 58 131.631 55.68C129.391 53.28 126.271 52.08 122.271 52.08C118.271 52.08 115.111 53.28 112.791 55.68C110.551 58 109.431 61.32 109.431 65.64V102H89.0306V65.64C89.0306 61.32 87.8706 58 85.5506 55.68C83.3106 53.28 80.1906 52.08 76.1906 52.08C72.1906 52.08 69.0306 53.28 66.7106 55.68C64.4706 58 63.3506 61.32 63.3506 65.64V102H42.8306V35.04H63.3506V43.44C65.4306 40.64 68.1506 38.44 71.5106 36.84C74.8706 35.16 78.6706 34.32 82.9106 34.32C87.9506 34.32 92.4306 35.4 96.3506 37.56C100.351 39.72 103.471 42.8 105.711 46.8C108.031 43.12 111.191 40.12 115.191 37.8C119.191 35.48 123.551 34.32 128.271 34.32Z" fill="#ECECEC"/>
<path d="M283 60C282.985 44.0917 276.658 28.8393 265.41 17.5905C254.161 6.34159 238.908 0.0152744 223 0C207.092 0.0152744 191.839 6.34159 180.59 17.5905C169.342 28.8393 163.015 44.0917 163 60C163.015 75.9083 169.342 91.1607 180.59 102.41C191.839 113.658 207.092 119.985 223 120H223.058C238.956 119.969 254.194 113.636 265.43 102.389C276.666 91.142 282.985 75.8983 283 60ZM177.538 37.4423L207.077 42.8654L176.096 79.3269C173.341 72.6451 172.045 65.452 172.294 58.2288C172.542 51.0057 174.331 43.9189 177.538 37.4423ZM269.904 40.6731C272.659 47.3549 273.955 54.548 273.706 61.7712C273.458 68.9943 271.669 76.0812 268.462 82.5577L238.923 77.1346L269.904 40.6731ZM265.288 31.9038L245.846 54.8077L229.692 9.69231C240.758 11.1139 251.032 16.19 258.885 24.1154C261.271 26.4939 263.416 29.1028 265.288 31.9038ZM219.769 9.34615L229.865 37.6154L182.788 29.0192C184.136 27.3035 185.581 25.6662 187.115 24.1154C195.815 15.3462 207.439 10.0885 219.769 9.34615ZM180.712 88.0962L200.154 65.1923L216.308 110.308C205.242 108.886 194.968 103.81 187.115 95.8846C184.729 93.5061 182.584 90.8972 180.712 88.0962ZM226.231 110.654L216.135 82.3846L229.404 84.8077H229.462L263.212 90.9808C261.864 92.6965 260.419 94.3338 258.885 95.8846C250.185 104.654 238.561 109.912 226.231 110.654Z" fill="url(#paint0_linear_12_38)"/>
<path d="M310.96 44.52C312.88 41.4 315.64 38.88 319.24 36.96C322.84 35.04 326.96 34.08 331.6 34.08C337.12 34.08 342.12 35.48 346.6 38.28C351.08 41.08 354.6 45.08 357.16 50.28C359.8 55.48 361.12 61.52 361.12 68.4C361.12 75.28 359.8 81.36 357.16 86.64C354.6 91.84 351.08 95.88 346.6 98.76C342.12 101.56 337.12 102.96 331.6 102.96C326.88 102.96 322.76 102.04 319.24 100.2C315.72 98.28 312.96 95.76 310.96 92.64V102H290.44V13.2H310.96V44.52ZM340.24 68.4C340.24 63.28 338.8 59.28 335.92 56.4C333.12 53.44 329.64 51.96 325.48 51.96C321.4 51.96 317.92 53.44 315.04 56.4C312.24 59.36 310.84 63.4 310.84 68.52C310.84 73.64 312.24 77.68 315.04 80.64C317.92 83.6 321.4 85.08 325.48 85.08C329.56 85.08 333.04 83.6 335.92 80.64C338.8 77.6 340.24 73.52 340.24 68.4Z" fill="#ECECEC"/>
<path d="M87.44 152.8C92.32 153.84 96.24 156.28 99.2 160.12C102.16 163.88 103.64 168.2 103.64 173.08C103.64 180.12 101.16 185.72 96.2 189.88C91.32 193.96 84.48 196 75.68 196H36.44V111.76H74.36C82.92 111.76 89.6 113.72 94.4 117.64C99.28 121.56 101.72 126.88 101.72 133.6C101.72 138.56 100.4 142.68 97.76 145.96C95.2 149.24 91.76 151.52 87.44 152.8ZM56.96 145.84H70.4C73.76 145.84 76.32 145.12 78.08 143.68C79.92 142.16 80.84 139.96 80.84 137.08C80.84 134.2 79.92 132 78.08 130.48C76.32 128.96 73.76 128.2 70.4 128.2H56.96V145.84ZM72.08 179.44C75.52 179.44 78.16 178.68 80 177.16C81.92 175.56 82.88 173.28 82.88 170.32C82.88 167.36 81.88 165.04 79.88 163.36C77.96 161.68 75.28 160.84 71.84 160.84H56.96V179.44H72.08ZM146.022 196.96C139.462 196.96 133.542 195.56 128.262 192.76C123.062 189.96 118.942 185.96 115.902 180.76C112.942 175.56 111.462 169.48 111.462 162.52C111.462 155.64 112.982 149.6 116.022 144.4C119.062 139.12 123.222 135.08 128.502 132.28C133.782 129.48 139.702 128.08 146.262 128.08C152.822 128.08 158.742 129.48 164.022 132.28C169.302 135.08 173.462 139.12 176.502 144.4C179.542 149.6 181.062 155.64 181.062 162.52C181.062 169.4 179.502 175.48 176.382 180.76C173.342 185.96 169.142 189.96 163.782 192.76C158.502 195.56 152.582 196.96 146.022 196.96ZM146.022 179.2C149.942 179.2 153.262 177.76 155.982 174.88C158.782 172 160.182 167.88 160.182 162.52C160.182 157.16 158.822 153.04 156.102 150.16C153.462 147.28 150.182 145.84 146.262 145.84C142.262 145.84 138.942 147.28 136.302 150.16C133.662 152.96 132.342 157.08 132.342 162.52C132.342 167.88 133.622 172 136.182 174.88C138.822 177.76 142.102 179.2 146.022 179.2ZM222.428 196.96C215.868 196.96 209.948 195.56 204.668 192.76C199.468 189.96 195.348 185.96 192.308 180.76C189.348 175.56 187.868 169.48 187.868 162.52C187.868 155.64 189.388 149.6 192.428 144.4C195.468 139.12 199.628 135.08 204.908 132.28C210.188 129.48 216.108 128.08 222.668 128.08C229.228 128.08 235.148 129.48 240.428 132.28C245.708 135.08 249.868 139.12 252.908 144.4C255.948 149.6 257.468 155.64 257.468 162.52C257.468 169.4 255.908 175.48 252.788 180.76C249.748 185.96 245.548 189.96 240.188 192.76C234.908 195.56 228.988 196.96 222.428 196.96ZM222.428 179.2C226.348 179.2 229.668 177.76 232.388 174.88C235.188 172 236.588 167.88 236.588 162.52C236.588 157.16 235.228 153.04 232.508 150.16C229.868 147.28 226.588 145.84 222.668 145.84C218.668 145.84 215.348 147.28 212.708 150.16C210.068 152.96 208.748 157.08 208.748 162.52C208.748 167.88 210.028 172 212.588 174.88C215.228 177.76 218.508 179.2 222.428 179.2ZM309.274 196L288.874 167.92V196H268.354V107.2H288.874V156.28L309.154 129.04H334.474L306.634 162.64L334.714 196H309.274Z" fill="url(#paint1_linear_12_38)"/>
<defs>
<linearGradient id="paint0_linear_12_38" x1="223" y1="0" x2="223" y2="205" gradientUnits="userSpaceOnUse">
<stop stop-color="#2DC2A8"/>
<stop offset="1" stop-color="#772AD8"/>
</linearGradient>
<linearGradient id="paint1_linear_12_38" x1="182" y1="-0.999994" x2="182.5" y2="210" gradientUnits="userSpaceOnUse">
<stop stop-color="#2DC2A8"/>
<stop offset="1" stop-color="#772AD8"/>
</linearGradient>
</defs>
</svg>
